<?xml version="1.0" encoding="UTF-8"?>
<!DOCTYPE svg PUBLIC "-//W3C//DTD SVG 1.1//EN" "http://www.w3.org/Graphics/SVG/1.1/DTD/svg11.dtd">
<!-- Creator: CorelDRAW 2020 (64-Bit) -->
<svg xmlns="http://www.w3.org/2000/svg" xml:space="preserve" width="210mm" height="209.23mm" version="1.1" style="shape-rendering:geometricPrecision; text-rendering:geometricPrecision; image-rendering:optimizeQuality; fill-rule:evenodd; clip-rule:evenodd"
viewBox="0 0 20528.26 20452.98"
 xmlns:xlink="http://www.w3.org/1999/xlink"
 xmlns:xodm="http://www.corel.com/coreldraw/odm/2003">
 <defs>
  <style type="text/css">
   <![CDATA[
    .fil0 {fill:blue;fill-rule:nonzero}
   ]]>
  </style>
 </defs>
 <g id="Capa_x0020_1">
  <metadata id="CorelCorpID_0Corel-Layer"/>
  <g id="facebook.svg">
   <path class="fil0" d="M7784.49 20226.33l0 -6825.65 -2116.13 -0.01 0 -3136.55 2116.12 0.01 0 -1351.44c0,-3494.09 1580.68,-5113.25 5010.61,-5113.25 343,0 816.86,35.92 1255.65,88.11 327.73,33.51 655.85,89.71 975.82,166.75l0 2844.02c-185.09,-17.43 -373.28,-28.24 -558.78,-30.94 -191.5,-1.95 -398.63,-7.55 -594.57,-7.55 -8.4,0 -22.4,0 -30.79,0 -604.73,0 -1076.88,82.11 -1432.71,264.31 -240.28,119.95 -441.7,304.47 -582.02,532.11 -220.68,359.24 -319.9,851.07 -319.9,1498.56l0 1109.39 3352.1 -0.07 -330.16 1798.79 -245.49 1337.76 -2776.44 -0.01 0 7052.31c5082.46,-614.13 9020.46,-4941.32 9020.46,-10188.85 0,-5668.37 -4595.77,-10264.13 -10264.13,-10264.13 -5668.36,0 -10264.13,4595.77 -10264.13,10264.13 0,4813.88 3313.6,8852.81 7784.49,9962.2z"/>
  </g>
 </g>
</svg>
