<?xml version="1.0" encoding="UTF-8"?>
<!DOCTYPE svg PUBLIC "-//W3C//DTD SVG 1.1//EN" "http://www.w3.org/Graphics/SVG/1.1/DTD/svg11.dtd">
<!-- Creator: CorelDRAW 2020 (64-Bit) -->
<svg xmlns="http://www.w3.org/2000/svg" xml:space="preserve" width="209.999mm" height="210.001mm" version="1.1" style="shape-rendering:geometricPrecision; text-rendering:geometricPrecision; image-rendering:optimizeQuality; fill-rule:evenodd; clip-rule:evenodd"
viewBox="0 0 20985.69 20985.85"
 xmlns:xlink="http://www.w3.org/1999/xlink"
 xmlns:xodm="http://www.corel.com/coreldraw/odm/2003">
 <defs>
  <style type="text/css">
   <![CDATA[
    .fil0 {fill:url(#id0);fill-rule:nonzero}
   ]]>
  </style>
  <linearGradient id="id0" gradientUnits="userSpaceOnUse" x1="1833.19" y1="2115.22" x2="19669.09" y2="18726.55">
   <stop offset="0" style="stop-opacity:1; stop-color:#9900CC"/>
   <stop offset="1" style="stop-opacity:1; stop-color:#FF6633"/>
  </linearGradient>
 </defs>
 <g id="Capa_x0020_1">
  <metadata id="CorelCorpID_0Corel-Layer"/>
  <g id="instagram.svg">
   <path class="fil0" d="M6147.17 73.47c-1116.44,52.64 -1878.84,230.84 -2545.4,492.65 -689.73,268.88 -1274.45,629.57 -1856.19,1213.42 -581.66,583.84 -939.99,1168.91 -1206.86,1859.87 -258.3,667.88 -433.36,1430.97 -482.67,2548.02 -49.32,1117.05 -60.25,1476.18 -54.74,4325.69 5.43,2849.35 18.02,3206.53 72.14,4325.95 53.34,1116.18 230.84,1878.41 492.73,2545.13 269.32,689.82 629.57,1274.28 1213.68,1856.19 584.01,581.92 1168.65,939.37 1861.18,1206.68 667.35,257.95 1430.62,433.8 2547.5,482.67 1116.88,48.97 1476.35,60.34 4325,54.82 2848.65,-5.43 3207.32,-18.1 4326.39,-71.18 1119.24,-53.07 1877.36,-231.89 2544.35,-492.56 689.82,-269.85 1274.72,-629.57 1856.19,-1213.77 581.49,-584.28 939.55,-1169.79 1206.24,-1861.09 258.56,-667.35 434.24,-1430.53 482.67,-2546.62 48.97,-1120.03 60.51,-1477.58 55.09,-4326.56 -5.51,-2849.08 -18.37,-3206.27 -71.44,-4325.25 -53.07,-1118.98 -230.84,-1878.84 -492.56,-2546.01 -269.67,-689.82 -629.57,-1273.84 -1213.33,-1856.19 -583.84,-582.35 -1169.88,-940.16 -1860.83,-1206.24 -667.88,-258.39 -1430.62,-434.41 -2547.5,-482.67 -1116.88,-48.27 -1476.35,-60.78 -4326.04,-55.18 -2849.69,5.43 -3206.44,17.58 -4325.59,72.14m122.59 18968.68c-1023.06,-44.51 -1578.57,-214.49 -1948.79,-356.76 -490.2,-188.87 -839.43,-417.18 -1208.34,-782.6 -369,-365.33 -595.56,-715.79 -786.97,-1204.93 -143.75,-370.23 -316.88,-925.12 -364.71,-1948.18 -52.02,-1105.69 -62.96,-1437.7 -69.08,-4239.12 -6.13,-2801.34 4.64,-3133 53.07,-4239.12 43.72,-1022.19 214.75,-1578.31 356.76,-1948.36 188.87,-490.81 416.4,-839.43 782.6,-1208.08 366.2,-368.74 715.61,-595.83 1205.19,-787.23 369.88,-144.36 924.68,-316.02 1947.31,-364.71 1106.56,-52.46 1438.13,-62.96 4239.12,-69.08 2800.99,-6.13 3133.43,4.38 4240.43,53.16 1022.19,44.42 1578.57,213.79 1948.18,356.76 490.37,188.87 839.43,415.7 1208.08,782.6 368.74,366.73 596,714.91 787.41,1205.54 144.54,368.74 316.28,923.37 364.54,1946.69 52.64,1106.56 64.62,1438.4 69.6,4239.12 5.08,2800.73 -4.81,3133.35 -53.34,4239.12 -44.6,1023.06 -214.23,1578.74 -356.76,1949.41 -188.87,490.02 -416.48,839.43 -782.95,1207.91 -366.38,368.56 -715.35,595.56 -1205.19,786.97 -369.35,144.19 -924.86,316.28 -1946.61,364.98 -1106.65,52.02 -1438.22,62.96 -4240.26,69.08 -2802.04,6.13 -3132.56,-5.25 -4239.12,-53.16m8553.9 -14157.26c1.07,694.58 564.62,1257.05 1259.14,1257.05 695.29,0 1259.15,-563.86 1259.15,-1259.15 0,-695.29 -563.86,-1259.15 -1259.15,-1259.15 -0.77,0 -1.85,0 -2.61,0 -694.37,1.38 -1256.54,564.78 -1256.54,1259.15 0,0.61 0,1.54 0,2.15m-9718.59 5618.54c5.86,2975.78 2422.64,5382.59 5397.72,5376.99 2975.26,-5.69 5383.73,-2422.2 5378.13,-5397.98 -5.69,-2975.78 -2422.99,-5383.29 -5398.59,-5377.43 -2975.61,5.86 -5382.85,2422.99 -5377.25,5398.42m1890.02 -3.76c0,-2.22 0,-4.78 0,-6.91 0,-1931.36 1566.27,-3497.63 3497.63,-3497.63 1931.35,0 3497.62,1566.27 3497.62,3497.63 0,1928.79 -1562,3494.2 -3490.79,3497.62 -2.06,0 -5.05,0 -7.18,0 -1928.6,0 -3493.86,-1562.27 -3497.28,-3490.87m0 0.16l0 0 0 0z"/>
  </g>
 </g>
</svg>
