<?xml version="1.0" encoding="UTF-8"?>
<!DOCTYPE svg PUBLIC "-//W3C//DTD SVG 1.1//EN" "http://www.w3.org/Graphics/SVG/1.1/DTD/svg11.dtd">
<!-- Creator: CorelDRAW 2020 (64-Bit) -->
<svg xmlns="http://www.w3.org/2000/svg" xml:space="preserve" width="150.438mm" height="150.453mm" version="1.1" style="shape-rendering:geometricPrecision; text-rendering:geometricPrecision; image-rendering:optimizeQuality; fill-rule:evenodd; clip-rule:evenodd"
viewBox="0 0 15029.51 15031.06"
 xmlns:xlink="http://www.w3.org/1999/xlink"
 xmlns:xodm="http://www.corel.com/coreldraw/odm/2003">
 <defs>
  <style type="text/css">
   <![CDATA[
    .fil0 {fill:#33CC33}
   ]]>
  </style>
 </defs>
 <g id="Capa_x0020_1">
  <metadata id="CorelCorpID_0Corel-Layer"/>
  <g id="_2034405561168">
   <path class="fil0" d="M1515.32 7512.71c0,-1565.27 651.3,-3141.78 1682.68,-4167.16 221.56,-220.26 513.24,-497.43 769.6,-675.24 944.87,-655.39 2068.57,-1148.39 3256.6,-1148.39 1106.23,0 1910.91,87.22 2854.58,563.7 1070.31,540.43 1630.86,1029.8 2320.75,1943.3 586.84,777.04 1097.39,2117.95 1097.39,3201.88 0,1123.54 -103.08,1914.9 -581.84,2871.68 -343.63,686.77 -690.37,1162.23 -1224.13,1700.79 -1764.37,1780.18 -4732.94,2218.82 -6957.21,1019.11 -709.92,-382.9 -377.16,-391.52 -1223.62,-178.51 -475.94,119.76 -935.61,223.86 -1395.71,331.05l463.38 -1723.37c92.8,-298.51 -10.67,-342.97 -342.81,-899.25 -205.83,-344.73 -388.7,-850.74 -501,-1261.01 -127.37,-465.36 -218.66,-998.2 -218.66,-1578.57zm-1515.32 -211.44c0,933.53 48.77,1557.75 330.02,2418.71 199.42,610.48 238.57,693.45 504,1222.75 228.18,455.01 154.18,288.75 11.75,869.26 -106.45,433.83 -841.08,2996.8 -845.77,3206.84 206.51,-4.61 3492.78,-799.87 3722.01,-861.05 331.1,-88.37 188.62,-16.11 778.51,236.93 283.07,121.41 546.85,218.03 851.47,311.44 2256.62,692 4584.09,253.42 6509.72,-1075.83 433.77,-299.43 747.23,-596.43 1115.91,-963.25 83.63,-83.19 93.01,-105.36 161.71,-190.69 60.68,-75.37 101.35,-102.74 166.63,-185.77 420.65,-535.15 795.66,-1072.33 1082.26,-1736.93 912.14,-2115.15 892.42,-4627.37 -325.65,-6742.98 -209.19,-363.33 -583.56,-941.25 -873.32,-1241.08l-1071.31 -1007.86c-1022.75,-819.51 -2774.89,-1547.96 -4047.07,-1556.09 -1141.01,-7.29 -1400.34,-45.05 -2510.49,240.09 -1139.14,292.6 -2091.63,845.55 -2963.19,1582.77 -1552.53,1313.22 -2597.21,3422.71 -2597.21,5472.75z"/>
   <path class="fil0" d="M3700.21 5680.24c0,965.63 300.35,1466.11 810.64,2184.75 503.16,708.61 628.46,855.78 1242.07,1471.41 218.99,219.71 474.92,429.16 725.71,613.4l851.48 522.88c1170.88,517.13 2721.15,1132.31 3725.47,-44.82 169.19,-198.29 216.12,-442.43 263.47,-759.46 78.21,-523.64 -135.53,-474.81 -1075.96,-945.78 -1051.19,-526.45 -822.09,-340.23 -1265.95,155.4 -448.32,500.62 -330.95,767.18 -1456.29,100.04 -624.64,-370.3 -947.17,-677.48 -1384.5,-1223.26 -99.5,-124.16 -497.96,-646.93 -497.96,-805.92 0,-201.27 634.32,-597.31 634.32,-1021.96 0,-91.88 -346.34,-900.62 -412.73,-1067.35 -69.54,-174.65 -143.45,-367.92 -220.01,-520.03 -184.01,-365.56 -381.52,-315.58 -776.85,-315.58 -377.39,0 -648.8,369.94 -810.86,598.73 -170.76,241.07 -352.06,646.75 -352.06,1057.55z"/>
  </g>
 </g>
</svg>
